<svg width="32" height="32" viewBox="0 0 32 32" fill="none" xmlns="http://www.w3.org/2000/svg">
<path d="M7.76562 17.625H15.9219C16.2344 17.625 16.4948 17.5208 16.7031 17.3125C16.9115 17.1042 17.0156 16.8438 17.0156 16.5312V6C17.0156 5.69792 16.9115 5.44271 16.7031 5.23438C16.4948 5.02604 16.2344 4.92188 15.9219 4.92188C15.6198 4.92188 15.3646 5.02604 15.1562 5.23438C14.9479 5.44271 14.8438 5.69792 14.8438 6V15.4531H7.76562C7.45312 15.4531 7.19271 15.5573 6.98438 15.7656C6.77604 15.974 6.67188 16.2292 6.67188 16.5312C6.67188 16.8438 6.77604 17.1042 6.98438 17.3125C7.19271 17.5208 7.45312 17.625 7.76562 17.625ZM15.9375 31.875C13.7396 31.875 11.6771 31.4583 9.75 30.625C7.82292 29.8021 6.13021 28.6615 4.67188 27.2031C3.21354 25.7344 2.06771 24.0417 1.23438 22.125C0.411458 20.1979 0 18.1354 0 15.9375C0 13.7396 0.411458 11.6771 1.23438 9.75C2.06771 7.82292 3.21354 6.13021 4.67188 4.67188C6.13021 3.21354 7.82292 2.07292 9.75 1.25C11.6771 0.416667 13.7396 0 15.9375 0C18.1354 0 20.1979 0.416667 22.125 1.25C24.0521 2.07292 25.7448 3.21354 27.2031 4.67188C28.6615 6.13021 29.8021 7.82292 30.625 9.75C31.4583 11.6771 31.875 13.7396 31.875 15.9375C31.875 18.1354 31.4583 20.1979 30.625 22.125C29.8021 24.0417 28.6615 25.7344 27.2031 27.2031C25.7448 28.6615 24.0521 29.8021 22.125 30.625C20.1979 31.4583 18.1354 31.875 15.9375 31.875Z" fill="#727272"/>
</svg>
