<svg width="32" height="32" viewBox="0 0 32 32" fill="none" xmlns="http://www.w3.org/2000/svg">
<path d="M15.9375 31.875C13.7396 31.875 11.6771 31.4583 9.75 30.625C7.82292 29.8021 6.13021 28.6615 4.67188 27.2031C3.21354 25.7344 2.06771 24.0417 1.23438 22.125C0.411458 20.1979 0 18.1354 0 15.9375C0 13.7396 0.411458 11.6771 1.23438 9.75C2.06771 7.82292 3.21354 6.13021 4.67188 4.67188C6.13021 3.21354 7.82292 2.07292 9.75 1.25C11.6771 0.416667 13.7396 0 15.9375 0C18.1354 0 20.1979 0.416667 22.125 1.25C24.0521 2.07292 25.7448 3.21354 27.2031 4.67188C28.6615 6.13021 29.8021 7.82292 30.625 9.75C31.4583 11.6771 31.875 13.7396 31.875 15.9375C31.875 18.1354 31.4583 20.1979 30.625 22.125C29.8021 24.0417 28.6615 25.7344 27.2031 27.2031C25.7448 28.6615 24.0521 29.8021 22.125 30.625C20.1979 31.4583 18.1354 31.875 15.9375 31.875ZM11.8438 25.6094H20.0469C20.276 25.6094 20.4792 25.526 20.6562 25.3594C20.8333 25.1823 20.9219 24.9792 20.9219 24.75C20.9219 24.5208 20.8333 24.3177 20.6562 24.1406C20.4896 23.9635 20.2865 23.875 20.0469 23.875H16.8281V22.25C17.8906 22.125 18.8229 21.7917 19.625 21.25C20.4271 20.6979 21.0521 19.9896 21.5 19.125C21.9479 18.25 22.1719 17.2656 22.1719 16.1719V14.0938C22.1719 13.875 22.0833 13.6823 21.9062 13.5156C21.7396 13.3385 21.5417 13.25 21.3125 13.25C21.0833 13.25 20.8854 13.3385 20.7188 13.5156C20.5521 13.6823 20.4688 13.875 20.4688 14.0938V16.1719C20.4688 17.0469 20.276 17.8229 19.8906 18.5C19.5052 19.1771 18.9688 19.7083 18.2812 20.0938C17.6042 20.4792 16.8229 20.6719 15.9375 20.6719C15.0521 20.6719 14.2708 20.4792 13.5938 20.0938C12.9167 19.7083 12.3854 19.1771 12 18.5C11.6146 17.8229 11.4219 17.0469 11.4219 16.1719V14.0938C11.4219 13.875 11.3385 13.6823 11.1719 13.5156C11.0052 13.3385 10.8073 13.25 10.5781 13.25C10.349 13.25 10.1458 13.3385 9.96875 13.5156C9.80208 13.6823 9.71875 13.875 9.71875 14.0938V16.1719C9.71875 17.2656 9.94271 18.25 10.3906 19.125C10.8385 19.9896 11.4635 20.6979 12.2656 21.25C13.0677 21.8021 14.0052 22.1354 15.0781 22.25V23.875H11.8438C11.6146 23.875 11.4115 23.9635 11.2344 24.1406C11.0573 24.3177 10.9688 24.5208 10.9688 24.75C10.9688 24.9896 11.0573 25.1927 11.2344 25.3594C11.4115 25.526 11.6146 25.6094 11.8438 25.6094ZM15.9375 19.0469C16.7292 19.0469 17.3698 18.776 17.8594 18.2344C18.3594 17.6823 18.6094 16.9948 18.6094 16.1719V9.26562C18.6094 8.45312 18.3594 7.78125 17.8594 7.25C17.3698 6.70833 16.7292 6.4375 15.9375 6.4375C15.1458 6.4375 14.5 6.70833 14 7.25C13.5104 7.78125 13.2656 8.45312 13.2656 9.26562V16.1719C13.2656 16.9948 13.5104 17.6823 14 18.2344C14.5 18.776 15.1458 19.0469 15.9375 19.0469Z" fill="#727272"/>
</svg>
