<svg width="32" height="32" viewBox="0 0 32 32" fill="none" xmlns="http://www.w3.org/2000/svg">
<path d="M16 0C24.8366 0 32 7.16344 32 16C32 24.8366 24.8366 32 16 32C7.16344 32 0 24.8366 0 16C0 7.16344 7.16344 0 16 0ZM17.0586 10.5723C16.9201 10.5723 16.7993 10.6201 16.6973 10.7148C16.6026 10.8023 16.5443 10.9187 16.5225 11.0645C16.3693 12.2676 16.1939 13.2815 15.9971 14.1055C15.8075 14.922 15.5522 15.5967 15.2314 16.1289C14.9106 16.661 14.4878 17.0874 13.9629 17.4082C13.4379 17.729 12.7703 17.9808 11.9609 18.1631C11.1517 18.3453 10.1565 18.5016 8.97559 18.6328C8.81517 18.6474 8.68757 18.7065 8.59277 18.8086C8.4981 18.9106 8.45025 19.0306 8.4502 19.1689C8.4502 19.3148 8.49798 19.4389 8.59277 19.541C8.68756 19.6431 8.8152 19.7012 8.97559 19.7158C10.1567 19.8689 11.1482 20.0444 11.9502 20.2412C12.7596 20.4308 13.4237 20.6826 13.9414 20.9961C14.4662 21.3096 14.8892 21.729 15.21 22.2539C15.5307 22.7788 15.786 23.4458 15.9756 24.2549C16.1724 25.0715 16.3548 26.0778 16.5225 27.2734C16.5443 27.4265 16.6025 27.5473 16.6973 27.6348C16.7993 27.7296 16.9201 27.7773 17.0586 27.7773C17.2042 27.7773 17.3242 27.7294 17.4189 27.6348C17.5137 27.5473 17.5763 27.4266 17.6055 27.2734C17.7586 26.0778 17.9296 25.068 18.1191 24.2441C18.316 23.4203 18.5713 22.7422 18.8848 22.21C19.2055 21.6778 19.6285 21.2549 20.1533 20.9414C20.6783 20.6206 21.3459 20.3688 22.1553 20.1865C22.9646 20.0042 23.9639 19.8471 25.1523 19.7158C25.3052 19.7012 25.4287 19.6429 25.5234 19.541C25.6182 19.4389 25.666 19.3148 25.666 19.1689C25.666 19.0305 25.6182 18.9106 25.5234 18.8086C25.4287 18.7066 25.3053 18.6474 25.1523 18.6328C23.9639 18.5016 22.9646 18.3454 22.1553 18.1631C21.3459 17.9808 20.6783 17.729 20.1533 17.4082C19.6285 17.0874 19.2055 16.661 18.8848 16.1289C18.5713 15.5967 18.316 14.922 18.1191 14.1055C17.9296 13.2815 17.7586 12.2676 17.6055 11.0645C17.5763 10.9186 17.5137 10.8023 17.4189 10.7148C17.3242 10.6201 17.2043 10.5723 17.0586 10.5723ZM9.64258 7.26953C9.42392 7.26955 9.29972 7.38941 9.27051 7.62988C9.18304 8.35881 9.08837 8.92763 8.98633 9.33594C8.88424 9.73698 8.72363 10.04 8.50488 10.2441C8.28613 10.4483 7.96139 10.6089 7.53125 10.7256C7.10108 10.8349 6.51055 10.9626 5.75977 11.1084C5.54121 11.1448 5.43179 11.2649 5.43164 11.4688C5.43164 11.6802 5.55579 11.8044 5.80371 11.8408C6.54741 11.9648 7.13082 12.082 7.55371 12.1914C7.98351 12.3007 8.3042 12.4607 8.51562 12.6719C8.7343 12.876 8.89153 13.1861 8.98633 13.6016C9.08841 14.0172 9.18301 14.5902 9.27051 15.3193C9.2997 15.5599 9.42389 15.6797 9.64258 15.6797C9.74466 15.6797 9.82891 15.6477 9.89453 15.582C9.96016 15.5164 10.0001 15.4356 10.0146 15.3408C10.1094 14.6118 10.2075 14.0431 10.3096 13.6348C10.4117 13.2264 10.5688 12.92 10.7803 12.7158C10.999 12.5045 11.3195 12.3437 11.7422 12.2344C12.1724 12.1177 12.7671 11.9867 13.5254 11.8408C13.7441 11.7971 13.8535 11.6729 13.8535 11.4688C13.8534 11.3669 13.8204 11.2833 13.7549 11.2178C13.6966 11.1522 13.6202 11.1157 13.5254 11.1084C12.7671 10.999 12.1724 10.8931 11.7422 10.791C11.3122 10.6889 10.9882 10.5317 10.7695 10.3203C10.5581 10.1016 10.4009 9.78122 10.2988 9.3584C10.204 8.93548 10.1094 8.3556 10.0146 7.61914C9.98548 7.38582 9.86132 7.26953 9.64258 7.26953ZM14.9365 2.82812C14.7981 2.82812 14.7173 2.90128 14.6953 3.04688C14.6078 3.49167 14.5314 3.84245 14.4658 4.09766C14.4075 4.35255 14.3127 4.54904 14.1816 4.6875C14.0577 4.81875 13.8641 4.92467 13.6016 5.00488C13.3391 5.07777 12.9708 5.15863 12.4971 5.24609C12.3514 5.27531 12.2783 5.35519 12.2783 5.48633C12.2783 5.62482 12.3513 5.70909 12.4971 5.73828C12.9708 5.81845 13.3391 5.89835 13.6016 5.97852C13.864 6.05872 14.0577 6.16812 14.1816 6.30664C14.3129 6.43789 14.4075 6.63151 14.4658 6.88672C14.5314 7.1419 14.6078 7.49189 14.6953 7.93652C14.7172 8.0823 14.798 8.15527 14.9365 8.15527C15.0676 8.15522 15.1476 8.08217 15.1768 7.93652C15.2569 7.49196 15.3299 7.14189 15.3955 6.88672C15.4611 6.63164 15.5558 6.43789 15.6797 6.30664C15.8109 6.16813 16.0081 6.05872 16.2705 5.97852C16.5329 5.89833 16.9013 5.81846 17.375 5.73828C17.5208 5.70911 17.5938 5.62487 17.5938 5.48633C17.5937 5.3551 17.5208 5.27526 17.375 5.24609C16.9012 5.15862 16.5329 5.07778 16.2705 5.00488C16.0081 4.92468 15.8109 4.8187 15.6797 4.6875C15.556 4.54903 15.4611 4.35245 15.3955 4.09766C15.3299 3.84245 15.257 3.49167 15.1768 3.04688C15.1475 2.90141 15.0675 2.82818 14.9365 2.82812Z" fill="#727272"/>
</svg>
