<svg width="395" height="542" viewBox="0 0 395 542" fill="none" xmlns="http://www.w3.org/2000/svg">
<mask id="path-1-outside-1_4411_3022" maskUnits="userSpaceOnUse" x="62" y="24" width="55" height="55" fill="black">
<rect fill="white" x="62" y="24" width="55" height="55"/>
<path d="M65.2036 32.5176V27.0823H114.121V32.5176H92.3801V76H86.9448V32.5176H65.2036Z"/>
</mask>
<path d="M65.2036 32.5176V27.0823H114.121V32.5176H92.3801V76H86.9448V32.5176H65.2036Z" fill="black"/>
<path d="M65.2036 32.5176H62.9389V34.7823H65.2036V32.5176ZM65.2036 27.0823V24.8176H62.9389V27.0823H65.2036ZM114.121 27.0823H116.386V24.8176H114.121V27.0823ZM114.121 32.5176V34.7823H116.386V32.5176H114.121ZM92.3801 32.5176V30.2529H90.1153V32.5176H92.3801ZM92.3801 76V78.2647H94.6448V76H92.3801ZM86.9448 76H84.6801V78.2647H86.9448V76ZM86.9448 32.5176H89.2095V30.2529H86.9448V32.5176ZM65.2036 32.5176H67.4683V27.0823H65.2036H62.9389V32.5176H65.2036ZM65.2036 27.0823V29.3471H114.121V27.0823V24.8176H65.2036V27.0823ZM114.121 27.0823H111.857V32.5176H114.121H116.386V27.0823H114.121ZM114.121 32.5176V30.2529H92.3801V32.5176V34.7823H114.121V32.5176ZM92.3801 32.5176H90.1153V76H92.3801H94.6448V32.5176H92.3801ZM92.3801 76V73.7353H86.9448V76V78.2647H92.3801V76ZM86.9448 76H89.2095V32.5176H86.9448H84.6801V76H86.9448ZM86.9448 32.5176V30.2529H65.2036V32.5176V34.7823H86.9448V32.5176Z" fill="black" mask="url(#path-1-outside-1_4411_3022)"/>
<path d="M117 79H151C159.877 79 164.315 79 167.77 77.4255C171.604 75.6777 174.678 72.6038 176.425 68.7696C178 65.3154 178 60.8769 178 52V49.0563C178 42.9386 178 39.8797 177.243 37.3913C175.546 31.8166 171.183 27.4539 165.609 25.7573C163.12 25 160.061 25 153.944 25C144.549 25 139.851 25 136.029 26.163C127.468 28.7685 120.768 35.4684 118.163 44.0294C117 47.851 117 52.5485 117 61.9437V79Z" fill="black"/>
<mask id="path-4-outside-2_4411_3022" maskUnits="userSpaceOnUse" x="181" y="24" width="55" height="55" fill="black">
<rect fill="white" x="181" y="24" width="55" height="55"/>
<path d="M227.686 76V32.5176H208.662C198.118 32.5176 189.639 40.9967 189.639 51.5412V76H184.204V51.5412C184.204 38.0616 195.183 27.0823 208.662 27.0823H233.121V76H227.686Z"/>
</mask>
<path d="M227.686 76V32.5176H208.662C198.118 32.5176 189.639 40.9967 189.639 51.5412V76H184.204V51.5412C184.204 38.0616 195.183 27.0823 208.662 27.0823H233.121V76H227.686Z" fill="black"/>
<path d="M227.686 76H225.421V78.2647H227.686V76ZM227.686 32.5176H229.951V30.2529H227.686V32.5176ZM189.639 76V78.2647H191.904V76H189.639ZM184.204 76H181.939V78.2647H184.204V76ZM233.121 27.0823H235.386V24.8176H233.121V27.0823ZM233.121 76V78.2647H235.386V76H233.121ZM227.686 76H229.951V32.5176H227.686H225.421V76H227.686ZM227.686 32.5176V30.2529H208.662V32.5176V34.7823H227.686V32.5176ZM208.662 32.5176V30.2529C196.867 30.2529 187.374 39.7459 187.374 51.5412H189.639H191.904C191.904 42.2475 199.369 34.7823 208.662 34.7823V32.5176ZM189.639 51.5412H187.374V76H189.639H191.904V51.5412H189.639ZM189.639 76V73.7353H184.204V76V78.2647H189.639V76ZM184.204 76H186.468V51.5412H184.204H181.939V76H184.204ZM184.204 51.5412H186.468C186.468 39.3124 196.434 29.3471 208.662 29.3471V27.0823V24.8176C193.932 24.8176 181.939 36.8109 181.939 51.5412H184.204ZM208.662 27.0823V29.3471H233.121V27.0823V24.8176H208.662V27.0823ZM233.121 27.0823H230.857V76H233.121H235.386V27.0823H233.121ZM233.121 76V73.7353H227.686V76V78.2647H233.121V76Z" fill="black" mask="url(#path-4-outside-2_4411_3022)"/>
<mask id="path-6-outside-3_4411_3022" maskUnits="userSpaceOnUse" x="239" y="24" width="55" height="55" fill="black">
<rect fill="white" x="239" y="24" width="55" height="55"/>
<path d="M242.204 76V27.0823H247.639V48.8235H263.945C275.902 48.8235 285.686 39.04 285.686 27.0823H291.121C291.121 37.8442 284.816 47.0842 275.794 51.5412C284.816 55.9981 291.121 65.2381 291.121 76H285.686C285.686 64.0424 275.902 54.2588 263.945 54.2588H247.639V76H242.204Z"/>
</mask>
<path d="M242.204 76V27.0823H247.639V48.8235H263.945C275.902 48.8235 285.686 39.04 285.686 27.0823H291.121C291.121 37.8442 284.816 47.0842 275.794 51.5412C284.816 55.9981 291.121 65.2381 291.121 76H285.686C285.686 64.0424 275.902 54.2588 263.945 54.2588H247.639V76H242.204Z" fill="black"/>
<path d="M242.204 76H239.939V78.2647H242.204V76ZM242.204 27.0823V24.8176H239.939V27.0823H242.204ZM247.639 27.0823H249.904V24.8176H247.639V27.0823ZM247.639 48.8235H245.374V51.0882H247.639V48.8235ZM285.686 27.0823V24.8176H283.421V27.0823H285.686ZM291.121 27.0823H293.386V24.8176H291.121V27.0823ZM275.794 51.5412L274.791 49.5107L270.68 51.5412L274.791 53.5717L275.794 51.5412ZM291.121 76V78.2647H293.386V76H291.121ZM285.686 76H283.421V78.2647H285.686V76ZM247.639 54.2588V51.9941H245.374V54.2588H247.639ZM247.639 76V78.2647H249.904V76H247.639ZM242.204 76H244.468V27.0823H242.204H239.939V76H242.204ZM242.204 27.0823V29.3471H247.639V27.0823V24.8176H242.204V27.0823ZM247.639 27.0823H245.374V48.8235H247.639H249.904V27.0823H247.639ZM247.639 48.8235V51.0882H263.945V48.8235V46.5588H247.639V48.8235ZM263.945 48.8235V51.0882C277.153 51.0882 287.951 40.2908 287.951 27.0823H285.686H283.421C283.421 37.7892 274.652 46.5588 263.945 46.5588V48.8235ZM285.686 27.0823V29.3471H291.121V27.0823V24.8176H285.686V27.0823ZM291.121 27.0823H288.857C288.857 36.9309 283.088 45.412 274.791 49.5107L275.794 51.5412L276.797 53.5717C286.545 48.7565 293.386 38.7576 293.386 27.0823H291.121ZM275.794 51.5412L274.791 53.5717C283.088 57.6703 288.857 66.1515 288.857 76H291.121H293.386C293.386 64.3247 286.545 54.3259 276.797 49.5107L275.794 51.5412ZM291.121 76V73.7353H285.686V76V78.2647H291.121V76ZM285.686 76H287.951C287.951 62.7916 277.153 51.9941 263.945 51.9941V54.2588V56.5235C274.652 56.5235 283.421 65.2931 283.421 76H285.686ZM263.945 54.2588V51.9941H247.639V54.2588V56.5235H263.945V54.2588ZM247.639 54.2588H245.374V76H247.639H249.904V54.2588H247.639ZM247.639 76V73.7353H242.204V76V78.2647H247.639V76Z" fill="black" mask="url(#path-6-outside-3_4411_3022)"/>
<circle cx="304" cy="71" r="8" fill="black"/>
<mask id="path-9-outside-4_4411_3022" maskUnits="userSpaceOnUse" x="54" y="382" width="55" height="55" fill="black">
<rect fill="white" x="54" y="382" width="55" height="55"/>
<path d="M57.2036 390.518V385.082H106.121V390.518H84.3801V434H78.9448V390.518H57.2036Z"/>
</mask>
<path d="M57.2036 390.518V385.082H106.121V390.518H84.3801V434H78.9448V390.518H57.2036Z" fill="#E8E8E8"/>
<path d="M57.2036 390.518H54.9389V392.782H57.2036V390.518ZM57.2036 385.082V382.818H54.9389V385.082H57.2036ZM106.121 385.082H108.386V382.818H106.121V385.082ZM106.121 390.518V392.782H108.386V390.518H106.121ZM84.3801 390.518V388.253H82.1153V390.518H84.3801ZM84.3801 434V436.265H86.6448V434H84.3801ZM78.9448 434H76.6801V436.265H78.9448V434ZM78.9448 390.518H81.2095V388.253H78.9448V390.518ZM57.2036 390.518H59.4683V385.082H57.2036H54.9389V390.518H57.2036ZM57.2036 385.082V387.347H106.121V385.082V382.818H57.2036V385.082ZM106.121 385.082H103.857V390.518H106.121H108.386V385.082H106.121ZM106.121 390.518V388.253H84.3801V390.518V392.782H106.121V390.518ZM84.3801 390.518H82.1153V434H84.3801H86.6448V390.518H84.3801ZM84.3801 434V431.735H78.9448V434V436.265H84.3801V434ZM78.9448 434H81.2095V390.518H78.9448H76.6801V434H78.9448ZM78.9448 390.518V388.253H57.2036V390.518V392.782H78.9448V390.518Z" fill="#E8E8E8" mask="url(#path-9-outside-4_4411_3022)"/>
<path d="M109 437H143C151.877 437 156.315 437 159.77 435.425C163.604 433.678 166.678 430.604 168.425 426.77C170 423.315 170 418.877 170 410V407.056C170 400.939 170 397.88 169.243 395.391C167.546 389.817 163.183 385.454 157.609 383.757C155.12 383 152.061 383 145.944 383V383C136.549 383 131.851 383 128.029 384.163C119.468 386.768 112.768 393.468 110.163 402.029C109 405.851 109 410.549 109 419.944V437Z" fill="#E8E8E8"/>
<mask id="path-12-outside-5_4411_3022" maskUnits="userSpaceOnUse" x="173" y="382" width="55" height="55" fill="black">
<rect fill="white" x="173" y="382" width="55" height="55"/>
<path d="M219.686 434V390.518H200.662C190.118 390.518 181.639 398.997 181.639 409.541V434H176.204V409.541C176.204 396.062 187.183 385.082 200.662 385.082H225.121V434H219.686Z"/>
</mask>
<path d="M219.686 434V390.518H200.662C190.118 390.518 181.639 398.997 181.639 409.541V434H176.204V409.541C176.204 396.062 187.183 385.082 200.662 385.082H225.121V434H219.686Z" fill="#E8E8E8"/>
<path d="M219.686 434H217.421V436.265H219.686V434ZM219.686 390.518H221.951V388.253H219.686V390.518ZM181.639 434V436.265H183.904V434H181.639ZM176.204 434H173.939V436.265H176.204V434ZM225.121 385.082H227.386V382.818H225.121V385.082ZM225.121 434V436.265H227.386V434H225.121ZM219.686 434H221.951V390.518H219.686H217.421V434H219.686ZM219.686 390.518V388.253H200.662V390.518V392.782H219.686V390.518ZM200.662 390.518V388.253C188.867 388.253 179.374 397.746 179.374 409.541H181.639H183.904C183.904 400.247 191.369 392.782 200.662 392.782V390.518ZM181.639 409.541H179.374V434H181.639H183.904V409.541H181.639ZM181.639 434V431.735H176.204V434V436.265H181.639V434ZM176.204 434H178.468V409.541H176.204H173.939V434H176.204ZM176.204 409.541H178.468C178.468 397.312 188.434 387.347 200.662 387.347V385.082V382.818C185.932 382.818 173.939 394.811 173.939 409.541H176.204ZM200.662 385.082V387.347H225.121V385.082V382.818H200.662V385.082ZM225.121 385.082H222.857V434H225.121H227.386V385.082H225.121ZM225.121 434V431.735H219.686V434V436.265H225.121V434Z" fill="#E8E8E8" mask="url(#path-12-outside-5_4411_3022)"/>
<mask id="path-14-outside-6_4411_3022" maskUnits="userSpaceOnUse" x="231" y="382" width="55" height="55" fill="black">
<rect fill="white" x="231" y="382" width="55" height="55"/>
<path d="M234.204 434V385.082H239.639V406.824H255.945C267.902 406.824 277.686 397.04 277.686 385.082H283.121C283.121 395.844 276.816 405.084 267.794 409.541C276.816 413.998 283.121 423.238 283.121 434H277.686C277.686 422.042 267.902 412.259 255.945 412.259H239.639V434H234.204Z"/>
</mask>
<path d="M234.204 434V385.082H239.639V406.824H255.945C267.902 406.824 277.686 397.04 277.686 385.082H283.121C283.121 395.844 276.816 405.084 267.794 409.541C276.816 413.998 283.121 423.238 283.121 434H277.686C277.686 422.042 267.902 412.259 255.945 412.259H239.639V434H234.204Z" fill="#E8E8E8"/>
<path d="M234.204 434H231.939V436.265H234.204V434ZM234.204 385.082V382.818H231.939V385.082H234.204ZM239.639 385.082H241.904V382.818H239.639V385.082ZM239.639 406.824H237.374V409.088H239.639V406.824ZM277.686 385.082V382.818H275.421V385.082H277.686ZM283.121 385.082H285.386V382.818H283.121V385.082ZM267.794 409.541L266.791 407.511L262.68 409.541L266.791 411.572L267.794 409.541ZM283.121 434V436.265H285.386V434H283.121ZM277.686 434H275.421V436.265H277.686V434ZM239.639 412.259V409.994H237.374V412.259H239.639ZM239.639 434V436.265H241.904V434H239.639ZM234.204 434H236.468V385.082H234.204H231.939V434H234.204ZM234.204 385.082V387.347H239.639V385.082V382.818H234.204V385.082ZM239.639 385.082H237.374V406.824H239.639H241.904V385.082H239.639ZM239.639 406.824V409.088H255.945V406.824V404.559H239.639V406.824ZM255.945 406.824V409.088C269.153 409.088 279.951 398.291 279.951 385.082H277.686H275.421C275.421 395.789 266.652 404.559 255.945 404.559V406.824ZM277.686 385.082V387.347H283.121V385.082V382.818H277.686V385.082ZM283.121 385.082H280.857C280.857 394.931 275.088 403.412 266.791 407.511L267.794 409.541L268.797 411.572C278.545 406.756 285.386 396.758 285.386 385.082H283.121ZM267.794 409.541L266.791 411.572C275.088 415.67 280.857 424.151 280.857 434H283.121H285.386C285.386 422.325 278.545 412.326 268.797 407.511L267.794 409.541ZM283.121 434V431.735H277.686V434V436.265H283.121V434ZM277.686 434H279.951C279.951 420.792 269.153 409.994 255.945 409.994V412.259V414.524C266.652 414.524 275.421 423.293 275.421 434H277.686ZM255.945 412.259V409.994H239.639V412.259V414.524H255.945V412.259ZM239.639 412.259H237.374V434H239.639H241.904V412.259H239.639ZM239.639 434V431.735H234.204V434V436.265H239.639V434Z" fill="#E8E8E8" mask="url(#path-14-outside-6_4411_3022)"/>
<circle cx="296" cy="429" r="8" fill="#E8E8E8"/>
</svg>
