<svg width="35" height="30" viewBox="0 0 35 30" fill="none" xmlns="http://www.w3.org/2000/svg">
<path d="M21.2009 4.54184C18.0667 5.88902 11.8012 8.68061 2.40681 12.9138C0.881376 13.5416 0.0810574 14.1554 0.00854539 14.7554C-0.114994 15.7721 1.11503 16.1721 2.78549 16.7137C3.01377 16.7887 3.2501 16.8637 3.49181 16.947C5.1381 17.4998 7.35106 18.147 8.50051 18.172C9.54522 18.1942 10.7108 17.7498 11.9972 16.8387C20.7738 10.7083 25.3045 7.61119 25.5892 7.54453C25.7906 7.4973 26.0699 7.4362 26.2579 7.61119C26.4459 7.78341 26.4271 8.11118 26.4083 8.20006C26.2848 8.73616 21.4667 13.3721 18.9691 15.7721C18.1903 16.5193 17.6397 17.0498 17.5269 17.172C17.2745 17.4415 17.0166 17.6998 16.7696 17.947C15.2388 19.4692 14.0947 20.6136 16.834 22.4802C18.1117 23.3513 19.1413 24.0758 20.1612 24.7935L20.2528 24.8579C21.3996 25.6662 22.5437 26.4718 24.0261 27.4773C24.4021 27.7328 24.762 27.9967 25.1138 28.255C26.4486 29.2411 27.6491 30.1244 29.1315 29.9855C29.9909 29.9022 30.8826 29.0661 31.3337 26.569C32.3999 20.6636 34.5001 7.87507 34.9862 2.603C35.0158 2.16528 34.9978 1.7255 34.9325 1.29193C34.8934 0.941747 34.7285 0.619534 34.4706 0.389176C34.0865 0.0641854 33.4903 -0.00525537 33.2217 0.00030003C32.0105 0.0225216 30.1521 0.691947 21.2009 4.54184Z" fill="#E8E8E8"/>
</svg>
