<svg width="395" height="263" viewBox="0 0 395 263" fill="none" xmlns="http://www.w3.org/2000/svg">
<mask id="path-1-outside-1_4418_2998" maskUnits="userSpaceOnUse" x="54" y="103" width="55" height="55" fill="black">
<rect fill="white" x="54" y="103" width="55" height="55"/>
<path d="M57.2036 111.518V106.082H106.121V111.518H84.3801V155H78.9448V111.518H57.2036Z"/>
</mask>
<path d="M57.2036 111.518V106.082H106.121V111.518H84.3801V155H78.9448V111.518H57.2036Z" fill="#E8E8E8"/>
<path d="M57.2036 111.518H54.9389V113.782H57.2036V111.518ZM57.2036 106.082V103.818H54.9389V106.082H57.2036ZM106.121 106.082H108.386V103.818H106.121V106.082ZM106.121 111.518V113.782H108.386V111.518H106.121ZM84.3801 111.518V109.253H82.1153V111.518H84.3801ZM84.3801 155V157.265H86.6448V155H84.3801ZM78.9448 155H76.6801V157.265H78.9448V155ZM78.9448 111.518H81.2095V109.253H78.9448V111.518ZM57.2036 111.518H59.4683V106.082H57.2036H54.9389V111.518H57.2036ZM57.2036 106.082V108.347H106.121V106.082V103.818H57.2036V106.082ZM106.121 106.082H103.857V111.518H106.121H108.386V106.082H106.121ZM106.121 111.518V109.253H84.3801V111.518V113.782H106.121V111.518ZM84.3801 111.518H82.1153V155H84.3801H86.6448V111.518H84.3801ZM84.3801 155V152.735H78.9448V155V157.265H84.3801V155ZM78.9448 155H81.2095V111.518H78.9448H76.6801V155H78.9448ZM78.9448 111.518V109.253H57.2036V111.518V113.782H78.9448V111.518Z" fill="#E8E8E8" mask="url(#path-1-outside-1_4418_2998)"/>
<path d="M109 158H143C151.877 158 156.315 158 159.77 156.425C163.604 154.678 166.678 151.604 168.425 147.77C170 144.315 170 139.877 170 131V128.056C170 121.939 170 118.88 169.243 116.391C167.546 110.817 163.183 106.454 157.609 104.757C155.12 104 152.061 104 145.944 104V104C136.549 104 131.851 104 128.029 105.163C119.468 107.768 112.768 114.468 110.163 123.029C109 126.851 109 131.549 109 140.944V158Z" fill="#E8E8E8"/>
<mask id="path-4-outside-2_4418_2998" maskUnits="userSpaceOnUse" x="173" y="103" width="55" height="55" fill="black">
<rect fill="white" x="173" y="103" width="55" height="55"/>
<path d="M219.686 155V111.518H200.662C190.118 111.518 181.639 119.997 181.639 130.541V155H176.204V130.541C176.204 117.062 187.183 106.082 200.662 106.082H225.121V155H219.686Z"/>
</mask>
<path d="M219.686 155V111.518H200.662C190.118 111.518 181.639 119.997 181.639 130.541V155H176.204V130.541C176.204 117.062 187.183 106.082 200.662 106.082H225.121V155H219.686Z" fill="#E8E8E8"/>
<path d="M219.686 155H217.421V157.265H219.686V155ZM219.686 111.518H221.951V109.253H219.686V111.518ZM181.639 155V157.265H183.904V155H181.639ZM176.204 155H173.939V157.265H176.204V155ZM225.121 106.082H227.386V103.818H225.121V106.082ZM225.121 155V157.265H227.386V155H225.121ZM219.686 155H221.951V111.518H219.686H217.421V155H219.686ZM219.686 111.518V109.253H200.662V111.518V113.782H219.686V111.518ZM200.662 111.518V109.253C188.867 109.253 179.374 118.746 179.374 130.541H181.639H183.904C183.904 121.247 191.369 113.782 200.662 113.782V111.518ZM181.639 130.541H179.374V155H181.639H183.904V130.541H181.639ZM181.639 155V152.735H176.204V155V157.265H181.639V155ZM176.204 155H178.468V130.541H176.204H173.939V155H176.204ZM176.204 130.541H178.468C178.468 118.312 188.434 108.347 200.662 108.347V106.082V103.818C185.932 103.818 173.939 115.811 173.939 130.541H176.204ZM200.662 106.082V108.347H225.121V106.082V103.818H200.662V106.082ZM225.121 106.082H222.857V155H225.121H227.386V106.082H225.121ZM225.121 155V152.735H219.686V155V157.265H225.121V155Z" fill="#E8E8E8" mask="url(#path-4-outside-2_4418_2998)"/>
<mask id="path-6-outside-3_4418_2998" maskUnits="userSpaceOnUse" x="231" y="103" width="55" height="55" fill="black">
<rect fill="white" x="231" y="103" width="55" height="55"/>
<path d="M234.204 155V106.082H239.639V127.824H255.945C267.902 127.824 277.686 118.04 277.686 106.082H283.121C283.121 116.844 276.816 126.084 267.794 130.541C276.816 134.998 283.121 144.238 283.121 155H277.686C277.686 143.042 267.902 133.259 255.945 133.259H239.639V155H234.204Z"/>
</mask>
<path d="M234.204 155V106.082H239.639V127.824H255.945C267.902 127.824 277.686 118.04 277.686 106.082H283.121C283.121 116.844 276.816 126.084 267.794 130.541C276.816 134.998 283.121 144.238 283.121 155H277.686C277.686 143.042 267.902 133.259 255.945 133.259H239.639V155H234.204Z" fill="#E8E8E8"/>
<path d="M234.204 155H231.939V157.265H234.204V155ZM234.204 106.082V103.818H231.939V106.082H234.204ZM239.639 106.082H241.904V103.818H239.639V106.082ZM239.639 127.824H237.374V130.088H239.639V127.824ZM277.686 106.082V103.818H275.421V106.082H277.686ZM283.121 106.082H285.386V103.818H283.121V106.082ZM267.794 130.541L266.791 128.511L262.68 130.541L266.791 132.572L267.794 130.541ZM283.121 155V157.265H285.386V155H283.121ZM277.686 155H275.421V157.265H277.686V155ZM239.639 133.259V130.994H237.374V133.259H239.639ZM239.639 155V157.265H241.904V155H239.639ZM234.204 155H236.468V106.082H234.204H231.939V155H234.204ZM234.204 106.082V108.347H239.639V106.082V103.818H234.204V106.082ZM239.639 106.082H237.374V127.824H239.639H241.904V106.082H239.639ZM239.639 127.824V130.088H255.945V127.824V125.559H239.639V127.824ZM255.945 127.824V130.088C269.153 130.088 279.951 119.291 279.951 106.082H277.686H275.421C275.421 116.789 266.652 125.559 255.945 125.559V127.824ZM277.686 106.082V108.347H283.121V106.082V103.818H277.686V106.082ZM283.121 106.082H280.857C280.857 115.931 275.088 124.412 266.791 128.511L267.794 130.541L268.797 132.572C278.545 127.756 285.386 117.758 285.386 106.082H283.121ZM267.794 130.541L266.791 132.572C275.088 136.67 280.857 145.151 280.857 155H283.121H285.386C285.386 143.325 278.545 133.326 268.797 128.511L267.794 130.541ZM283.121 155V152.735H277.686V155V157.265H283.121V155ZM277.686 155H279.951C279.951 141.792 269.153 130.994 255.945 130.994V133.259V135.524C266.652 135.524 275.421 144.293 275.421 155H277.686ZM255.945 133.259V130.994H239.639V133.259V135.524H255.945V133.259ZM239.639 133.259H237.374V155H239.639H241.904V133.259H239.639ZM239.639 155V152.735H234.204V155V157.265H239.639V155Z" fill="#E8E8E8" mask="url(#path-6-outside-3_4418_2998)"/>
<circle cx="296" cy="150" r="8" fill="#E8E8E8"/>
</svg>
