<svg width="31" height="31" viewBox="0 0 31 31" fill="none" xmlns="http://www.w3.org/2000/svg">
<path d="M16.1201 2.19125e-10C23.1345 2.8793e-10 26.6422 -0.000401762 28.8213 2.17871C31.0004 4.35782 31 7.86546 31 14.8799V16.1201C31 23.1345 31.0004 26.6422 28.8213 28.8213C26.6422 31.0004 23.1345 31 16.1201 31H14.8799C7.86546 31 4.35782 31.0004 2.17871 28.8213C-0.000401884 26.6422 2.86355e-10 23.1345 2.18919e-10 16.1201V14.8799C2.88002e-10 7.86546 -0.0004023 4.35782 2.17871 2.17871C4.35782 -0.000402422 7.86546 2.86836e-10 14.8799 2.19125e-10H16.1201ZM5.23145 9.42871C5.39951 17.4884 9.42987 22.332 16.4951 22.332H16.8955V17.7207C19.4918 17.979 21.4552 19.8779 22.2432 22.332H25.9111C24.9036 18.6637 22.2559 16.6353 20.6025 15.8604C22.2558 14.9045 24.5812 12.5801 25.1367 9.42871H21.8037C21.0803 11.986 18.9362 14.3107 16.8955 14.5303V9.42871H13.5635V18.3662C11.4969 17.8496 8.88787 15.3442 8.77148 9.42871H5.23145Z" fill="#E8E8E8"/>
</svg>
