<svg width="56" height="84" viewBox="0 0 56 84" fill="none" xmlns="http://www.w3.org/2000/svg">
<path d="M27.9688 68.6719C23.8021 68.6719 20 68.0208 16.5625 66.7188C13.151 65.3906 10.2083 63.5156 7.73438 61.0938C5.26042 58.6458 3.34635 55.7552 1.99219 52.4219C0.664062 49.0625 0 45.3516 0 41.2891V33.3594C0 32.5521 0.286458 31.862 0.859375 31.2891C1.43229 30.7161 2.1224 30.4297 2.92969 30.4297C3.76302 30.4297 4.46615 30.7161 5.03906 31.2891C5.61198 31.862 5.89844 32.5521 5.89844 33.3594V41.0547C5.89844 45.4818 6.8099 49.362 8.63281 52.6953C10.4557 56.0286 13.0208 58.6198 16.3281 60.4688C19.6354 62.2917 23.5156 63.2031 27.9688 63.2031C32.4219 63.2031 36.2891 62.2917 39.5703 60.4688C42.8776 58.6198 45.4427 56.0286 47.2656 52.6953C49.0885 49.362 50 45.4818 50 41.0547V33.3594C50 32.5521 50.2865 31.862 50.8594 31.2891C51.4323 30.7161 52.1354 30.4297 52.9688 30.4297C53.776 30.4297 54.4661 30.7161 55.0391 31.2891C55.612 31.862 55.8984 32.5521 55.8984 33.3594V41.2891C55.8984 45.3516 55.2214 49.0625 53.8672 52.4219C52.5391 55.7552 50.638 58.6458 48.1641 61.0938C45.6901 63.5156 42.7344 65.3906 39.2969 66.7188C35.8854 68.0208 32.1094 68.6719 27.9688 68.6719ZM13.75 39.8828V15.3125C13.75 12.3177 14.349 9.67448 15.5469 7.38281C16.7448 5.0651 18.4115 3.25521 20.5469 1.95312C22.6823 0.651042 25.1562 0 27.9688 0C30.7552 0 33.2161 0.651042 35.3516 1.95312C37.487 3.25521 39.1536 5.0651 40.3516 7.38281C41.5495 9.67448 42.1484 12.3177 42.1484 15.3125V39.8828C42.1484 42.8776 41.5495 45.5339 40.3516 47.8516C39.1536 50.1432 37.487 51.9401 35.3516 53.2422C33.2161 54.5443 30.7552 55.1953 27.9688 55.1953C25.1562 55.1953 22.6823 54.5443 20.5469 53.2422C18.4115 51.9401 16.7448 50.1432 15.5469 47.8516C14.349 45.5339 13.75 42.8776 13.75 39.8828ZM19.6484 39.8828C19.6484 42.7734 20.4036 45.0781 21.9141 46.7969C23.4505 48.5156 25.4688 49.375 27.9688 49.375C30.4688 49.375 32.474 48.5156 33.9844 46.7969C35.4948 45.0781 36.25 42.7734 36.25 39.8828V15.3125C36.25 12.4219 35.4948 10.1172 33.9844 8.39844C32.474 6.67969 30.4688 5.82031 27.9688 5.82031C25.4688 5.82031 23.4505 6.67969 21.9141 8.39844C20.4036 10.1172 19.6484 12.4219 19.6484 15.3125V39.8828ZM10.5078 83.5938C9.67448 83.5938 8.97135 83.3073 8.39844 82.7344C7.82552 82.1615 7.53906 81.4714 7.53906 80.6641C7.53906 79.8307 7.82552 79.1276 8.39844 78.5547C8.97135 77.9818 9.67448 77.6953 10.5078 77.6953H45.3906C46.224 77.6953 46.9271 77.9818 47.5 78.5547C48.0729 79.1276 48.3594 79.8307 48.3594 80.6641C48.3594 81.4714 48.0729 82.1615 47.5 82.7344C46.9271 83.3073 46.224 83.5938 45.3906 83.5938H10.5078ZM27.9688 82.3047C27.1354 82.3047 26.4323 82.0182 25.8594 81.4453C25.2865 80.8724 25 80.1693 25 79.3359V67.3438C25 66.5104 25.2865 65.8073 25.8594 65.2344C26.4323 64.6615 27.1354 64.375 27.9688 64.375C28.776 64.375 29.4661 64.6615 30.0391 65.2344C30.612 65.8073 30.8984 66.5104 30.8984 67.3438V79.3359C30.8984 80.1693 30.612 80.8724 30.0391 81.4453C29.4661 82.0182 28.776 82.3047 27.9688 82.3047Z" fill="#E8E8E8"/>
</svg>
