<svg width="90" height="134" viewBox="0 0 90 134" fill="none" xmlns="http://www.w3.org/2000/svg">
<path d="M44.75 87.0625C40.5833 87.0625 36.9375 86.1042 33.8125 84.1875C30.6875 82.2708 28.25 79.625 26.5 76.25C24.75 72.8333 23.875 68.8958 23.875 64.4375V22.625C23.875 18.1667 24.75 14.25 26.5 10.875C28.25 7.45833 30.6875 4.79167 33.8125 2.875C36.9375 0.958333 40.5833 0 44.75 0C48.875 0 52.5 0.958333 55.625 2.875C58.7917 4.79167 61.2292 7.45833 62.9375 10.875C64.6875 14.25 65.5625 18.1667 65.5625 22.625V64.4375C65.5625 68.8958 64.6875 72.8333 62.9375 76.25C61.2292 79.625 58.7917 82.2708 55.625 84.1875C52.5 86.1042 48.875 87.0625 44.75 87.0625ZM44.75 109.25C38.0833 109.25 32 108.208 26.5 106.125C21.0417 104 16.3333 101 12.375 97.125C8.41667 93.2083 5.35417 88.5833 3.1875 83.25C1.0625 77.875 0 71.9375 0 65.4375V52.75C0 51.4583 0.458333 50.3542 1.375 49.4375C2.29167 48.5208 3.39583 48.0625 4.6875 48.0625C6.02083 48.0625 7.14583 48.5208 8.0625 49.4375C8.97917 50.3542 9.4375 51.4583 9.4375 52.75V65.0625C9.4375 72.1458 10.8958 78.3542 13.8125 83.6875C16.7292 89.0208 20.8333 93.1667 26.125 96.125C31.4167 99.0417 37.625 100.5 44.75 100.5C51.875 100.5 58.0625 99.0417 63.3125 96.125C68.6042 93.1667 72.7083 89.0208 75.625 83.6875C78.5417 78.3542 80 72.1458 80 65.0625V52.75C80 51.4583 80.4583 50.3542 81.375 49.4375C82.2917 48.5208 83.4167 48.0625 84.75 48.0625C86.0417 48.0625 87.1458 48.5208 88.0625 49.4375C88.9792 50.3542 89.4375 51.4583 89.4375 52.75V65.4375C89.4375 71.9375 88.3542 77.875 86.1875 83.25C84.0625 88.5833 81.0208 93.2083 77.0625 97.125C73.1042 101 68.375 104 62.875 106.125C57.4167 108.208 51.375 109.25 44.75 109.25ZM16.8125 133.125C15.4792 133.125 14.3542 132.667 13.4375 131.75C12.5208 130.833 12.0625 129.729 12.0625 128.438C12.0625 127.104 12.5208 125.979 13.4375 125.062C14.3542 124.146 15.4792 123.688 16.8125 123.688H72.625C73.9583 123.688 75.0833 124.146 76 125.062C76.9167 125.979 77.375 127.104 77.375 128.438C77.375 129.729 76.9167 130.833 76 131.75C75.0833 132.667 73.9583 133.125 72.625 133.125H16.8125ZM44.75 131.062C43.4167 131.062 42.2917 130.604 41.375 129.688C40.4583 128.771 40 127.646 40 126.312V107.125C40 105.792 40.4583 104.667 41.375 103.75C42.2917 102.833 43.4167 102.375 44.75 102.375C46.0417 102.375 47.1458 102.833 48.0625 103.75C48.9792 104.667 49.4375 105.792 49.4375 107.125V126.312C49.4375 127.646 48.9792 128.771 48.0625 129.688C47.1458 130.604 46.0417 131.062 44.75 131.062Z" fill="#E8E8E8"/>
</svg>
