<svg width="32" height="32" viewBox="0 0 32 32" fill="none" xmlns="http://www.w3.org/2000/svg">
<path d="M16 0C24.8366 0 32 7.16344 32 16C32 24.8366 24.8366 32 16 32C7.16344 32 0 24.8366 0 16C0 7.16344 7.16344 0 16 0ZM9.82031 3.57715C8.60942 3.57715 7.69922 3.88579 7.08984 4.50293C6.48828 5.12012 6.1875 6.03809 6.1875 7.25684V25.0342C6.18753 26.2606 6.48832 27.1787 7.08984 27.7881C7.69922 28.3973 8.60956 28.7021 9.82031 28.7021H22.2656C23.4764 28.7021 24.3829 28.3974 24.9844 27.7881C25.5937 27.1787 25.8984 26.2606 25.8984 25.0342V7.25684C25.8984 6.03827 25.5936 5.12011 24.9844 4.50293C24.3829 3.8858 23.4764 3.57721 22.2656 3.57715H9.82031ZM15.8086 21.2725C16.035 21.2725 16.2149 21.3428 16.3477 21.4834C16.4881 21.624 16.5586 21.8195 16.5586 22.0693V24.0264C16.5586 24.2684 16.4882 24.46 16.3477 24.6006C16.2149 24.7489 16.035 24.8232 15.8086 24.8232H10.5117C10.2697 24.8232 10.082 24.7488 9.94922 24.6006C9.81644 24.46 9.75004 24.2685 9.75 24.0264V22.0693C9.75 21.8193 9.81641 21.624 9.94922 21.4834C10.082 21.3428 10.2696 21.2725 10.5117 21.2725H15.8086ZM19.6641 16.6787C19.8983 16.6788 20.0821 16.7491 20.2148 16.8896C20.3475 17.0224 20.4141 17.2101 20.4141 17.4521V19.4209C20.414 19.6708 20.3476 19.8663 20.2148 20.0068C20.0821 20.1396 19.8983 20.206 19.6641 20.2061H10.5117C10.2697 20.2061 10.082 20.1395 9.94922 20.0068C9.81644 19.8662 9.75004 19.6708 9.75 19.4209V17.4521C9.75 17.21 9.81641 17.0225 9.94922 16.8896C10.082 16.7491 10.2696 16.6787 10.5117 16.6787H19.6641ZM21.5977 12.0615C21.8319 12.0616 22.0157 12.1358 22.1484 12.2842C22.2811 12.4248 22.3477 12.6164 22.3477 12.8584V14.8154C22.3476 15.0575 22.2812 15.253 22.1484 15.4014C22.0157 15.5419 21.8319 15.6122 21.5977 15.6123H10.5117C10.2697 15.6123 10.082 15.5418 9.94922 15.4014C9.81644 15.253 9.75004 15.0575 9.75 14.8154V12.8584C9.75 12.6162 9.81641 12.4248 9.94922 12.2842C10.082 12.1358 10.2696 12.0615 10.5117 12.0615H21.5977ZM17.6953 7.46777C17.9295 7.46784 18.1133 7.53816 18.2461 7.67871C18.3787 7.81931 18.4453 8.01482 18.4453 8.26465V10.2217C18.4453 10.4637 18.3788 10.6592 18.2461 10.8076C18.1133 10.9482 17.9295 11.0185 17.6953 11.0186H10.5117C10.2697 11.0186 10.082 10.9481 9.94922 10.8076C9.81644 10.6592 9.75004 10.4638 9.75 10.2217V8.26465C9.75 8.01465 9.81641 7.81934 9.94922 7.67871C10.082 7.53813 10.2696 7.46777 10.5117 7.46777H17.6953Z" fill="#727272"/>
</svg>
